<mxfile host="app.diagrams.net" agent="Mozilla/5.0 (Macintosh; Intel Mac OS X 10_15_7) AppleWebKit/605.1.15 (KHTML, like Gecko) Version/18.1.1 Safari/605.1.15" version="26.0.4">
  <diagram name="Page-1" id="erTHF0tpMaPscay7p9Wl">
    <mxGraphModel grid="1" page="1" gridSize="10" guides="1" tooltips="1" connect="1" arrows="1" fold="1" pageScale="1" pageWidth="1169" pageHeight="827" math="0" shadow="0">
      <root>
        <mxCell id="0" />
        <mxCell id="1" parent="0" />
        <mxCell id="keMaimnpVPo-r0mqtThs-4" style="edgeStyle=orthogonalEdgeStyle;rounded=0;orthogonalLoop=1;jettySize=auto;html=1;entryX=0;entryY=0.5;entryDx=0;entryDy=0;" edge="1" parent="1" source="keMaimnpVPo-r0mqtThs-1" target="keMaimnpVPo-r0mqtThs-2">
          <mxGeometry relative="1" as="geometry" />
        </mxCell>
        <mxCell id="keMaimnpVPo-r0mqtThs-5" style="edgeStyle=orthogonalEdgeStyle;rounded=0;orthogonalLoop=1;jettySize=auto;html=1;entryX=0;entryY=0.5;entryDx=0;entryDy=0;" edge="1" parent="1" source="keMaimnpVPo-r0mqtThs-1" target="keMaimnpVPo-r0mqtThs-3">
          <mxGeometry relative="1" as="geometry" />
        </mxCell>
        <mxCell id="keMaimnpVPo-r0mqtThs-1" value="Landing&lt;div&gt;Page&lt;/div&gt;" style="rounded=0;whiteSpace=wrap;html=1;fontStyle=1" vertex="1" parent="1">
          <mxGeometry x="40" y="-2120" width="120" height="60" as="geometry" />
        </mxCell>
        <mxCell id="keMaimnpVPo-r0mqtThs-6" style="edgeStyle=orthogonalEdgeStyle;rounded=0;orthogonalLoop=1;jettySize=auto;html=1;entryX=0.5;entryY=0;entryDx=0;entryDy=0;" edge="1" parent="1" source="keMaimnpVPo-r0mqtThs-2" target="keMaimnpVPo-r0mqtThs-3">
          <mxGeometry relative="1" as="geometry" />
        </mxCell>
        <mxCell id="keMaimnpVPo-r0mqtThs-2" value="Signup&lt;div&gt;&lt;div&gt;Page&lt;/div&gt;&lt;/div&gt;" style="rounded=0;whiteSpace=wrap;html=1;fontStyle=1" vertex="1" parent="1">
          <mxGeometry x="240" y="-2200" width="120" height="60" as="geometry" />
        </mxCell>
        <mxCell id="keMaimnpVPo-r0mqtThs-10" style="edgeStyle=orthogonalEdgeStyle;rounded=0;orthogonalLoop=1;jettySize=auto;html=1;exitX=1;exitY=0.5;exitDx=0;exitDy=0;entryX=0;entryY=0.5;entryDx=0;entryDy=0;" edge="1" parent="1" source="keMaimnpVPo-r0mqtThs-3" target="keMaimnpVPo-r0mqtThs-7">
          <mxGeometry relative="1" as="geometry">
            <Array as="points">
              <mxPoint x="400" y="-2010" />
              <mxPoint x="400" y="-2170" />
            </Array>
          </mxGeometry>
        </mxCell>
        <mxCell id="keMaimnpVPo-r0mqtThs-11" style="edgeStyle=orthogonalEdgeStyle;rounded=0;orthogonalLoop=1;jettySize=auto;html=1;exitX=1;exitY=0.5;exitDx=0;exitDy=0;entryX=0;entryY=0.5;entryDx=0;entryDy=0;" edge="1" parent="1" source="keMaimnpVPo-r0mqtThs-3" target="keMaimnpVPo-r0mqtThs-8">
          <mxGeometry relative="1" as="geometry" />
        </mxCell>
        <mxCell id="keMaimnpVPo-r0mqtThs-12" style="edgeStyle=orthogonalEdgeStyle;rounded=0;orthogonalLoop=1;jettySize=auto;html=1;exitX=1;exitY=0.5;exitDx=0;exitDy=0;entryX=0;entryY=0.5;entryDx=0;entryDy=0;" edge="1" parent="1" source="keMaimnpVPo-r0mqtThs-3" target="keMaimnpVPo-r0mqtThs-9">
          <mxGeometry relative="1" as="geometry" />
        </mxCell>
        <mxCell id="keMaimnpVPo-r0mqtThs-3" value="Login&lt;div&gt;Page&lt;/div&gt;" style="rounded=0;whiteSpace=wrap;html=1;fontStyle=1" vertex="1" parent="1">
          <mxGeometry x="240" y="-2040" width="120" height="60" as="geometry" />
        </mxCell>
        <mxCell id="keMaimnpVPo-r0mqtThs-19" style="edgeStyle=orthogonalEdgeStyle;rounded=0;orthogonalLoop=1;jettySize=auto;html=1;exitX=1;exitY=0.5;exitDx=0;exitDy=0;entryX=0;entryY=0.5;entryDx=0;entryDy=0;" edge="1" parent="1" source="keMaimnpVPo-r0mqtThs-7" target="keMaimnpVPo-r0mqtThs-15">
          <mxGeometry relative="1" as="geometry">
            <Array as="points">
              <mxPoint x="610" y="-2170" />
              <mxPoint x="610" y="-2250" />
            </Array>
          </mxGeometry>
        </mxCell>
        <mxCell id="keMaimnpVPo-r0mqtThs-20" style="edgeStyle=orthogonalEdgeStyle;rounded=0;orthogonalLoop=1;jettySize=auto;html=1;exitX=1;exitY=0.5;exitDx=0;exitDy=0;entryX=0;entryY=0.5;entryDx=0;entryDy=0;" edge="1" parent="1" source="keMaimnpVPo-r0mqtThs-7" target="keMaimnpVPo-r0mqtThs-17">
          <mxGeometry relative="1" as="geometry" />
        </mxCell>
        <mxCell id="keMaimnpVPo-r0mqtThs-26" style="edgeStyle=orthogonalEdgeStyle;rounded=0;orthogonalLoop=1;jettySize=auto;html=1;entryX=0;entryY=0.5;entryDx=0;entryDy=0;" edge="1" parent="1" source="keMaimnpVPo-r0mqtThs-7" target="keMaimnpVPo-r0mqtThs-25">
          <mxGeometry relative="1" as="geometry">
            <Array as="points">
              <mxPoint x="610" y="-2170" />
              <mxPoint x="610" y="-2330" />
            </Array>
          </mxGeometry>
        </mxCell>
        <mxCell id="keMaimnpVPo-r0mqtThs-28" style="edgeStyle=orthogonalEdgeStyle;rounded=0;orthogonalLoop=1;jettySize=auto;html=1;entryX=0;entryY=0.5;entryDx=0;entryDy=0;exitX=1;exitY=0.5;exitDx=0;exitDy=0;" edge="1" parent="1" source="keMaimnpVPo-r0mqtThs-7" target="keMaimnpVPo-r0mqtThs-27">
          <mxGeometry relative="1" as="geometry">
            <Array as="points">
              <mxPoint x="610" y="-2170" />
              <mxPoint x="610" y="-2410" />
            </Array>
          </mxGeometry>
        </mxCell>
        <mxCell id="keMaimnpVPo-r0mqtThs-48" style="edgeStyle=orthogonalEdgeStyle;rounded=0;orthogonalLoop=1;jettySize=auto;html=1;exitX=0.5;exitY=0;exitDx=0;exitDy=0;entryX=0;entryY=0.5;entryDx=0;entryDy=0;" edge="1" parent="1" source="keMaimnpVPo-r0mqtThs-7" target="keMaimnpVPo-r0mqtThs-31">
          <mxGeometry relative="1" as="geometry">
            <mxPoint x="440" y="-2410" as="targetPoint" />
            <Array as="points">
              <mxPoint x="500" y="-2220" />
              <mxPoint x="420" y="-2220" />
              <mxPoint x="420" y="-2330" />
            </Array>
          </mxGeometry>
        </mxCell>
        <mxCell id="keMaimnpVPo-r0mqtThs-7" value="Student&lt;br&gt;&lt;div&gt;Home Page&lt;/div&gt;" style="rounded=0;whiteSpace=wrap;html=1;fontStyle=1;fillColor=#d5e8d4;strokeColor=#82b366;" vertex="1" parent="1">
          <mxGeometry x="440" y="-2200" width="120" height="60" as="geometry" />
        </mxCell>
        <mxCell id="keMaimnpVPo-r0mqtThs-21" style="edgeStyle=orthogonalEdgeStyle;rounded=0;orthogonalLoop=1;jettySize=auto;html=1;exitX=1;exitY=0.5;exitDx=0;exitDy=0;entryX=0;entryY=0.5;entryDx=0;entryDy=0;" edge="1" parent="1" source="keMaimnpVPo-r0mqtThs-8" target="keMaimnpVPo-r0mqtThs-46">
          <mxGeometry relative="1" as="geometry">
            <mxPoint x="640" y="-2090" as="targetPoint" />
          </mxGeometry>
        </mxCell>
        <mxCell id="keMaimnpVPo-r0mqtThs-22" style="edgeStyle=orthogonalEdgeStyle;rounded=0;orthogonalLoop=1;jettySize=auto;html=1;exitX=1;exitY=0.5;exitDx=0;exitDy=0;entryX=0;entryY=0.5;entryDx=0;entryDy=0;" edge="1" parent="1" source="keMaimnpVPo-r0mqtThs-8" target="keMaimnpVPo-r0mqtThs-18">
          <mxGeometry relative="1" as="geometry" />
        </mxCell>
        <mxCell id="keMaimnpVPo-r0mqtThs-41" style="edgeStyle=orthogonalEdgeStyle;rounded=0;orthogonalLoop=1;jettySize=auto;html=1;entryX=0;entryY=0.5;entryDx=0;entryDy=0;" edge="1" parent="1" source="keMaimnpVPo-r0mqtThs-8" target="keMaimnpVPo-r0mqtThs-44">
          <mxGeometry relative="1" as="geometry">
            <mxPoint x="640" y="-1930" as="targetPoint" />
          </mxGeometry>
        </mxCell>
        <mxCell id="keMaimnpVPo-r0mqtThs-49" style="edgeStyle=orthogonalEdgeStyle;rounded=0;orthogonalLoop=1;jettySize=auto;html=1;entryX=0;entryY=0.5;entryDx=0;entryDy=0;exitX=0.5;exitY=0;exitDx=0;exitDy=0;" edge="1" parent="1" source="keMaimnpVPo-r0mqtThs-8" target="keMaimnpVPo-r0mqtThs-31">
          <mxGeometry relative="1" as="geometry">
            <Array as="points">
              <mxPoint x="500" y="-2060" />
              <mxPoint x="420" y="-2060" />
              <mxPoint x="420" y="-2330" />
            </Array>
          </mxGeometry>
        </mxCell>
        <mxCell id="keMaimnpVPo-r0mqtThs-8" value="Company&lt;br&gt;&lt;div&gt;Home Page&lt;/div&gt;" style="rounded=0;whiteSpace=wrap;html=1;fontStyle=1" vertex="1" parent="1">
          <mxGeometry x="440" y="-2040" width="120" height="60" as="geometry" />
        </mxCell>
        <mxCell id="keMaimnpVPo-r0mqtThs-23" style="edgeStyle=orthogonalEdgeStyle;rounded=0;orthogonalLoop=1;jettySize=auto;html=1;exitX=1;exitY=0.5;exitDx=0;exitDy=0;" edge="1" parent="1" source="keMaimnpVPo-r0mqtThs-9" target="keMaimnpVPo-r0mqtThs-13">
          <mxGeometry relative="1" as="geometry" />
        </mxCell>
        <mxCell id="keMaimnpVPo-r0mqtThs-50" style="edgeStyle=orthogonalEdgeStyle;rounded=0;orthogonalLoop=1;jettySize=auto;html=1;entryX=0;entryY=0.5;entryDx=0;entryDy=0;exitX=0.5;exitY=0;exitDx=0;exitDy=0;" edge="1" parent="1" source="keMaimnpVPo-r0mqtThs-9" target="keMaimnpVPo-r0mqtThs-31">
          <mxGeometry relative="1" as="geometry">
            <Array as="points">
              <mxPoint x="500" y="-1900" />
              <mxPoint x="420" y="-1900" />
              <mxPoint x="420" y="-2330" />
            </Array>
          </mxGeometry>
        </mxCell>
        <mxCell id="keMaimnpVPo-r0mqtThs-9" value="University&lt;br&gt;&lt;div&gt;Home Page&lt;/div&gt;" style="rounded=0;whiteSpace=wrap;html=1;fontStyle=1" vertex="1" parent="1">
          <mxGeometry x="440" y="-1880" width="120" height="60" as="geometry" />
        </mxCell>
        <mxCell id="keMaimnpVPo-r0mqtThs-24" style="edgeStyle=orthogonalEdgeStyle;rounded=0;orthogonalLoop=1;jettySize=auto;html=1;exitX=1;exitY=0.5;exitDx=0;exitDy=0;" edge="1" parent="1" source="keMaimnpVPo-r0mqtThs-13" target="keMaimnpVPo-r0mqtThs-14">
          <mxGeometry relative="1" as="geometry" />
        </mxCell>
        <mxCell id="keMaimnpVPo-r0mqtThs-13" value="Student&lt;div&gt;Page&lt;/div&gt;" style="rounded=0;whiteSpace=wrap;html=1;fontStyle=1" vertex="1" parent="1">
          <mxGeometry x="640" y="-1880" width="120" height="60" as="geometry" />
        </mxCell>
        <mxCell id="keMaimnpVPo-r0mqtThs-54" style="edgeStyle=orthogonalEdgeStyle;rounded=0;orthogonalLoop=1;jettySize=auto;html=1;entryX=1;entryY=0.5;entryDx=0;entryDy=0;" edge="1" parent="1" source="keMaimnpVPo-r0mqtThs-14" target="keMaimnpVPo-r0mqtThs-51">
          <mxGeometry relative="1" as="geometry">
            <mxPoint x="990" y="-2410" as="targetPoint" />
            <Array as="points">
              <mxPoint x="1040" y="-1850" />
              <mxPoint x="1040" y="-2410" />
            </Array>
          </mxGeometry>
        </mxCell>
        <mxCell id="keMaimnpVPo-r0mqtThs-14" value="Internship&lt;div&gt;Page&lt;/div&gt;" style="rounded=0;whiteSpace=wrap;html=1;fontStyle=1;fillColor=#e1d5e7;strokeColor=#9673a6;" vertex="1" parent="1">
          <mxGeometry x="840" y="-1880" width="120" height="60" as="geometry" />
        </mxCell>
        <mxCell id="keMaimnpVPo-r0mqtThs-33" style="edgeStyle=orthogonalEdgeStyle;rounded=0;orthogonalLoop=1;jettySize=auto;html=1;exitX=1;exitY=0.5;exitDx=0;exitDy=0;entryX=0;entryY=0.5;entryDx=0;entryDy=0;" edge="1" parent="1" source="keMaimnpVPo-r0mqtThs-15" target="keMaimnpVPo-r0mqtThs-32">
          <mxGeometry relative="1" as="geometry" />
        </mxCell>
        <mxCell id="keMaimnpVPo-r0mqtThs-15" value="Applications&lt;div&gt;Page&lt;/div&gt;" style="rounded=0;whiteSpace=wrap;html=1;fontStyle=1;" vertex="1" parent="1">
          <mxGeometry x="640" y="-2280" width="120" height="60" as="geometry" />
        </mxCell>
        <mxCell id="keMaimnpVPo-r0mqtThs-37" style="edgeStyle=orthogonalEdgeStyle;rounded=0;orthogonalLoop=1;jettySize=auto;html=1;entryX=0;entryY=0.5;entryDx=0;entryDy=0;" edge="1" parent="1">
          <mxGeometry relative="1" as="geometry">
            <mxPoint x="960" y="-1870" as="sourcePoint" />
          </mxGeometry>
        </mxCell>
        <mxCell id="keMaimnpVPo-r0mqtThs-35" style="edgeStyle=orthogonalEdgeStyle;rounded=0;orthogonalLoop=1;jettySize=auto;html=1;entryX=0;entryY=0.5;entryDx=0;entryDy=0;" edge="1" parent="1" source="keMaimnpVPo-r0mqtThs-17" target="keMaimnpVPo-r0mqtThs-34">
          <mxGeometry relative="1" as="geometry" />
        </mxCell>
        <mxCell id="keMaimnpVPo-r0mqtThs-17" value="Internships&lt;div&gt;Page&lt;/div&gt;" style="rounded=0;whiteSpace=wrap;html=1;fontStyle=1;" vertex="1" parent="1">
          <mxGeometry x="640" y="-2200" width="120" height="60" as="geometry" />
        </mxCell>
        <mxCell id="keMaimnpVPo-r0mqtThs-39" style="edgeStyle=orthogonalEdgeStyle;rounded=0;orthogonalLoop=1;jettySize=auto;html=1;entryX=0;entryY=0.5;entryDx=0;entryDy=0;" edge="1" parent="1" source="keMaimnpVPo-r0mqtThs-18" target="keMaimnpVPo-r0mqtThs-38">
          <mxGeometry relative="1" as="geometry" />
        </mxCell>
        <mxCell id="keMaimnpVPo-r0mqtThs-18" value="Internships&lt;div&gt;Page&lt;/div&gt;" style="rounded=0;whiteSpace=wrap;html=1;fontStyle=1;" vertex="1" parent="1">
          <mxGeometry x="640" y="-1960" width="120" height="60" as="geometry" />
        </mxCell>
        <mxCell id="keMaimnpVPo-r0mqtThs-29" style="edgeStyle=orthogonalEdgeStyle;rounded=0;orthogonalLoop=1;jettySize=auto;html=1;entryX=0.5;entryY=1;entryDx=0;entryDy=0;" edge="1" parent="1" source="keMaimnpVPo-r0mqtThs-25" target="keMaimnpVPo-r0mqtThs-27">
          <mxGeometry relative="1" as="geometry" />
        </mxCell>
        <mxCell id="keMaimnpVPo-r0mqtThs-25" value="Results&lt;div&gt;Page&lt;/div&gt;" style="rounded=0;whiteSpace=wrap;html=1;fontStyle=1;" vertex="1" parent="1">
          <mxGeometry x="640" y="-2360" width="120" height="60" as="geometry" />
        </mxCell>
        <mxCell id="keMaimnpVPo-r0mqtThs-52" style="edgeStyle=orthogonalEdgeStyle;rounded=0;orthogonalLoop=1;jettySize=auto;html=1;entryX=0;entryY=0.5;entryDx=0;entryDy=0;" edge="1" parent="1" source="keMaimnpVPo-r0mqtThs-27" target="keMaimnpVPo-r0mqtThs-51">
          <mxGeometry relative="1" as="geometry" />
        </mxCell>
        <mxCell id="keMaimnpVPo-r0mqtThs-27" value="Position&lt;div&gt;Page&lt;/div&gt;" style="rounded=0;whiteSpace=wrap;html=1;fontStyle=1;" vertex="1" parent="1">
          <mxGeometry x="640" y="-2440" width="120" height="60" as="geometry" />
        </mxCell>
        <mxCell id="keMaimnpVPo-r0mqtThs-31" value="Profile&lt;div&gt;Page&lt;/div&gt;" style="rounded=0;whiteSpace=wrap;html=1;fontStyle=1;" vertex="1" parent="1">
          <mxGeometry x="440" y="-2360" width="120" height="60" as="geometry" />
        </mxCell>
        <mxCell id="keMaimnpVPo-r0mqtThs-32" value="Application&lt;div&gt;Page&lt;/div&gt;" style="rounded=0;whiteSpace=wrap;html=1;fontStyle=1;" vertex="1" parent="1">
          <mxGeometry x="840" y="-2280" width="120" height="60" as="geometry" />
        </mxCell>
        <mxCell id="keMaimnpVPo-r0mqtThs-56" style="edgeStyle=orthogonalEdgeStyle;rounded=0;orthogonalLoop=1;jettySize=auto;html=1;" edge="1" parent="1" source="keMaimnpVPo-r0mqtThs-34">
          <mxGeometry relative="1" as="geometry">
            <mxPoint x="960" y="-2410" as="targetPoint" />
            <Array as="points">
              <mxPoint x="1040" y="-2170" />
              <mxPoint x="1040" y="-2410" />
            </Array>
          </mxGeometry>
        </mxCell>
        <mxCell id="keMaimnpVPo-r0mqtThs-34" value="Internship&lt;div&gt;Page&lt;/div&gt;" style="rounded=0;whiteSpace=wrap;html=1;fontStyle=1;" vertex="1" parent="1">
          <mxGeometry x="840" y="-2200" width="120" height="60" as="geometry" />
        </mxCell>
        <mxCell id="keMaimnpVPo-r0mqtThs-55" style="edgeStyle=orthogonalEdgeStyle;rounded=0;orthogonalLoop=1;jettySize=auto;html=1;entryX=1;entryY=0.5;entryDx=0;entryDy=0;" edge="1" parent="1" source="keMaimnpVPo-r0mqtThs-38" target="keMaimnpVPo-r0mqtThs-46">
          <mxGeometry relative="1" as="geometry">
            <Array as="points">
              <mxPoint x="1000" y="-1930" />
              <mxPoint x="1000" y="-2090" />
            </Array>
          </mxGeometry>
        </mxCell>
        <mxCell id="keMaimnpVPo-r0mqtThs-38" value="Internship&lt;div&gt;Page&lt;/div&gt;" style="rounded=0;whiteSpace=wrap;html=1;fontStyle=1;" vertex="1" parent="1">
          <mxGeometry x="840" y="-1960" width="120" height="60" as="geometry" />
        </mxCell>
        <mxCell id="keMaimnpVPo-r0mqtThs-47" style="edgeStyle=orthogonalEdgeStyle;rounded=0;orthogonalLoop=1;jettySize=auto;html=1;exitX=1;exitY=0.5;exitDx=0;exitDy=0;entryX=0;entryY=0.5;entryDx=0;entryDy=0;" edge="1" parent="1" source="keMaimnpVPo-r0mqtThs-44" target="keMaimnpVPo-r0mqtThs-45">
          <mxGeometry relative="1" as="geometry" />
        </mxCell>
        <mxCell id="keMaimnpVPo-r0mqtThs-44" value="Positions&lt;br&gt;&lt;div&gt;Page&lt;/div&gt;" style="rounded=0;whiteSpace=wrap;html=1;fontStyle=1;" vertex="1" parent="1">
          <mxGeometry x="640" y="-2040" width="120" height="60" as="geometry" />
        </mxCell>
        <mxCell id="keMaimnpVPo-r0mqtThs-45" value="Position&lt;br&gt;&lt;div&gt;Page&lt;/div&gt;" style="rounded=0;whiteSpace=wrap;html=1;fontStyle=1;fillColor=#dae8fc;strokeColor=#6c8ebf;" vertex="1" parent="1">
          <mxGeometry x="840" y="-2040" width="120" height="60" as="geometry" />
        </mxCell>
        <mxCell id="keMaimnpVPo-r0mqtThs-46" value="Student&lt;div&gt;Page&lt;/div&gt;" style="rounded=0;whiteSpace=wrap;html=1;fontStyle=1;" vertex="1" parent="1">
          <mxGeometry x="640" y="-2120" width="120" height="60" as="geometry" />
        </mxCell>
        <mxCell id="keMaimnpVPo-r0mqtThs-51" value="Company&lt;div&gt;Page&lt;/div&gt;" style="rounded=0;whiteSpace=wrap;html=1;fontStyle=1;" vertex="1" parent="1">
          <mxGeometry x="840" y="-2440" width="120" height="60" as="geometry" />
        </mxCell>
      </root>
    </mxGraphModel>
  </diagram>
</mxfile>
